<svg width="26" height="21" viewBox="0 0 26 21" fill="none" xmlns="http://www.w3.org/2000/svg">
<path d="M13.3735 6.34366C16.844 4.91321 20.7308 6.61718 22.1113 10.2432C23.5303 13.9727 21.7681 18.3084 18.128 19.8313C16.9826 20.2957 15.7288 20.459 14.4956 20.3044C16.3545 20.9292 18.3922 20.8485 20.191 20.0789C24.6872 18.1975 26.8157 12.8565 25.0149 8.29528C23.2758 3.88565 18.4866 1.83423 14.2565 3.58256C10.5702 5.10541 8.2334 9.25261 9.03932 12.9489C9.0933 13.1891 9.01232 12.886 9.03932 12.9895C8.86579 9.89946 10.4892 7.53016 13.3735 6.34366Z" fill="#00F3FF"/>
<path d="M11.4854 14.3018C8.15023 15.6723 4.44452 13.7134 3.27352 9.92834C2.10251 6.14333 3.86272 2.06978 7.19416 0.7828C8.2427 0.395598 9.37106 0.292293 10.47 0.482884C8.81819 -0.160961 6.99311 -0.160961 5.3413 0.482884C1.20944 2.07358 -1.00658 7.14178 0.446059 11.8114C1.8987 16.4809 6.49748 18.9296 10.6368 17.2099C14.1868 15.7368 16.1953 11.7013 15.7173 7.67708C15.6876 7.43031 15.6543 7.20252 15.6358 7.10002C15.8285 10.1827 14.2091 13.1781 11.4854 14.3018Z" fill="#00F3FF"/>
<path d="M9.79631 12.7978C9.649 12.8577 9.4918 12.8254 9.36064 12.7083C9.22948 12.5912 9.13557 12.3993 9.10037 12.1764L8.89855 10.9755C8.8197 10.5 9.00342 10.0153 9.31611 9.87387L13.878 7.92113C14.0248 7.86406 14.1806 7.89695 14.3112 8.01253C14.4417 8.12812 14.5363 8.3169 14.574 8.53723L14.7793 9.72245C14.8648 10.1945 14.6843 10.6829 14.3721 10.8241L9.79631 12.7978Z" fill="#00F3FF"/>
</svg>
